# xmcd CD database file
#
# Track frame offsets:
#	150
#	10982
#	27970
#	43603
#	57317
#	71121
#	89158
#	102464
#	123516
#	132148
#	149767
#	168989
#	186394
#	209910
#	234892
#	256227
#	275666
#	289998
#	312260
#	330750
#
# Disc length: 4666 seconds
#
# Revision: 0
# Processed by: cddbd v1.5.2PL0 Copyright (c) Steve Scherf et al.
# Submitted via: Feurio! 1.68 - http://www.feurio.com
#
DISCID=3b123814
DTITLE=Ry Cooder - Into The Purple Valley - Bop Till You Drop
DYEAR=1900
DGENRE=
TTITLE0=How Can You Keep Moving
TTITLE1=Billy the Kid
TTITLE2=Money Honey
TTITLE3=FDR in Trinidad
TTITLE4=Teardrops Will Fall
TTITLE5=Denomination Blues
TTITLE6=On a Monday
TTITLE7=Hey Porter
TTITLE8=Great Dream from Heaven
TTITLE9=Taxes on the Farmer Feeds Us All
TTITLE10=Vigilante Man
TTITLE11=Little Sister
TTITLE12=Go Home, Girl
TTITLE13=The Very Thing That Makes You Rich
TTITLE14=I Think It's Going To Work Out Fine
TTITLE15=Down In Hollywood
TTITLE16=Look At Granny Run Run
TTITLE17=Trouble, You Can't Fool Me
TTITLE18=Don't Mess Up A Good Thing
TTITLE19=I Can't Win
EXTD=
EXTT0=
EXTT1=
EXTT2=
EXTT3=
EXTT4=
EXTT5=
EXTT6=
EXTT7=
EXTT8=
EXTT9=
EXTT10=
EXTT11=
EXTT12=
EXTT13=
EXTT14=
EXTT15=
EXTT16=
EXTT17=
EXTT18=
EXTT19=
PLAYORDER=
